# Blender 5.1.1
# www.blender.org
o Cone
v 0.003859 -0.041081 0.146627
v 0.142596 -0.041081 -0.093673
v -0.134879 -0.041081 -0.093673
v 0.003859 -0.641081 -0.013573
v 0.003859 -0.041081 0.286427
v 0.263667 -0.041081 -0.163573
v -0.255949 -0.041081 -0.163573
v 0.003859 0.474327 0.146627
v 0.142596 0.474327 -0.093673
v -0.134879 0.474327 -0.093673
vn 0.8402 -0.2425 0.4851
vn -0.8660 -0.0000 0.5000
vn -0.0000 -0.2425 -0.9701
vn -0.8402 -0.2425 0.4851
vn -0.0000 1.0000 -0.0000
vn -0.0000 -0.0000 -1.0000
vn 0.8660 -0.0000 0.5000
s 0
f 5//1 4//1 6//1
f 3//2 1//2 8//2 10//2
f 6//3 4//3 7//3
f 7//4 4//4 5//4
f 2//5 1//5 5//5 6//5
f 3//5 2//5 6//5 7//5
f 1//5 3//5 7//5 5//5
f 8//5 9//5 10//5
f 2//6 3//6 10//6 9//6
f 1//7 2//7 9//7 8//7
