# Blender 5.1.1
# www.blender.org
mtllib wall.mtl
o Cube.001
v -5.282889 -3.169734 0.316974
v -5.282889 3.169734 0.316973
v 5.282889 -3.169734 0.316974
v 5.282889 3.169734 0.316973
v 5.282889 -3.169734 -0.316973
v 5.282889 3.169734 -0.316974
v -5.282889 -3.169734 -0.316973
v -5.282889 3.169734 -0.316974
v -5.282889 3.169734 0.440945
v 5.282889 3.169734 0.440945
v 5.282889 3.169734 -0.440946
v -5.282889 3.169734 -0.440946
v -5.282889 3.328220 0.440945
v 5.282889 3.328220 0.440945
v 5.282889 3.328220 -0.440946
v -5.282889 3.328220 -0.440946
vn -0.0000 -0.0000 1.0000
vn 1.0000 -0.0000 -0.0000
vn -0.0000 -1.0000 -0.0000
vn -1.0000 -0.0000 -0.0000
vn -0.0000 1.0000 -0.0000
vt 0.823039 0.489192
vt 0.823039 0.935999
vt 0.078360 0.935999
vt 0.078360 0.489192
vt 0.960377 0.041154
vt 0.960377 0.487962
vt 0.915697 0.487962
vt 0.915697 0.041154
vt 0.822645 0.379895
vt 0.822645 0.424576
vt 0.077965 0.424576
vt 0.077965 0.379895
vt 0.999385 0.489192
vt 0.999385 0.935999
vt 0.954704 0.935999
vt 0.954704 0.489192
vt 0.822645 0.333985
vt 0.822645 0.378665
vt 0.077965 0.378665
vt 0.077965 0.333985
vt 0.077965 0.425806
vt 0.822645 0.425806
vt 0.822645 0.487962
vt 0.077965 0.487962
vt 0.823434 0.937229
vt 0.823434 0.999385
vt 0.078754 0.999385
vt 0.078754 0.937229
vt 0.389213 0.199083
vt 0.389213 0.187912
vt 0.451369 0.187912
vt 0.451369 0.199083
vt 0.077966 0.332755
vt 0.077966 0.321585
vt 0.822645 0.321585
vt 0.822645 0.332755
vt 0.183007 0.320355
vt 0.183007 0.309185
vt 0.245163 0.309185
vt 0.245163 0.320355
s 1
usemtl default
f 3/1/1 4/2/1 2/3/1 1/4/1
f 5/5/2 6/6/2 4/7/2 3/8/2
f 5/9/3 3/10/3 1/11/3 7/12/3
f 1/13/4 2/14/4 8/15/4 7/16/4
f 4/17/5 6/18/5 8/19/5 2/20/5
f 12/21/3 11/22/3 10/23/3 9/24/3
f 14/25/5 15/26/5 16/27/5 13/28/5
f 16/29/4 12/30/4 9/31/4 13/32/4
f 13/33/1 9/34/1 10/35/1 14/36/1
f 14/37/2 10/38/2 11/39/2 15/40/2
