# Blender 5.1.1
# www.blender.org
mtllib spot.mtl
o Cylinder
v -0.005312 0.737915 -0.173981
v -0.005312 -0.358364 -0.173981
v -0.039424 0.737915 -0.170621
v -0.039424 -0.358364 -0.170621
v -0.072224 0.737915 -0.160671
v -0.072224 -0.358364 -0.160671
v -0.102454 0.737915 -0.144513
v -0.102454 -0.358364 -0.144513
v -0.128950 0.737915 -0.122769
v -0.128950 -0.358364 -0.122769
v -0.150695 0.737915 -0.096272
v -0.150695 -0.358364 -0.096272
v -0.166852 0.737915 -0.066043
v -0.166853 -0.358364 -0.066043
v -0.176802 0.737915 -0.033243
v -0.176803 -0.358364 -0.033243
v -0.180162 0.737915 0.000869
v -0.180162 -0.358364 0.000869
v -0.176802 0.737915 0.034981
v -0.176803 -0.358364 0.034981
v -0.166852 0.737915 0.067781
v -0.166853 -0.358364 0.067781
v -0.150695 0.737915 0.098011
v -0.150695 -0.358364 0.098011
v -0.128950 0.737915 0.124507
v -0.128950 -0.358364 0.124507
v -0.102454 0.737915 0.146252
v -0.102454 -0.358364 0.146252
v -0.072224 0.737915 0.162409
v -0.072224 -0.358364 0.162409
v -0.039424 0.737915 0.172359
v -0.039424 -0.358364 0.172359
v -0.005312 0.737915 0.175719
v -0.005312 -0.358364 0.175719
v 0.028800 0.737915 0.172359
v 0.028799 -0.358364 0.172359
v 0.061600 0.737915 0.162409
v 0.061600 -0.358364 0.162409
v 0.091829 0.737915 0.146252
v 0.091829 -0.358364 0.146252
v 0.118326 0.737915 0.124507
v 0.118326 -0.358364 0.124507
v 0.140070 0.737915 0.098011
v 0.140070 -0.358364 0.098011
v 0.156228 0.737915 0.067781
v 0.156228 -0.358364 0.067781
v 0.166178 0.737915 0.034981
v 0.166178 -0.358364 0.034981
v 0.169538 0.737915 0.000869
v 0.169538 -0.358364 0.000869
v 0.166178 0.737915 -0.033243
v 0.166178 -0.358364 -0.033243
v 0.156228 0.737915 -0.066043
v 0.156228 -0.358364 -0.066043
v 0.140070 0.737915 -0.096272
v 0.140070 -0.358364 -0.096272
v 0.118326 0.737915 -0.122769
v 0.118326 -0.358364 -0.122769
v 0.091829 0.737915 -0.144513
v 0.091829 -0.358364 -0.144513
v 0.061600 0.737915 -0.160671
v 0.061600 -0.358364 -0.160671
v 0.028800 0.737915 -0.170621
v 0.028799 -0.358364 -0.170621
v -0.056854 -0.626365 -0.258248
v -0.005312 -0.626365 -0.263325
v -0.106415 -0.626365 -0.243214
v -0.152090 -0.626365 -0.218800
v -0.192125 -0.626365 -0.185944
v -0.224981 -0.626365 -0.145909
v -0.249395 -0.626365 -0.100234
v -0.264430 -0.626365 -0.050673
v -0.269506 -0.626365 0.000869
v -0.264430 -0.626365 0.052411
v -0.249395 -0.626365 0.101972
v -0.224981 -0.626365 0.147647
v -0.192125 -0.626365 0.187682
v -0.152090 -0.626365 0.220538
v -0.106415 -0.626365 0.244952
v -0.056854 -0.626365 0.259986
v -0.005312 -0.626365 0.265063
v 0.046230 -0.626365 0.259986
v 0.095791 -0.626365 0.244952
v 0.141466 -0.626365 0.220538
v 0.181501 -0.626365 0.187682
v 0.214357 -0.626365 0.147647
v 0.238771 -0.626365 0.101972
v 0.253805 -0.626365 0.052411
v 0.258882 -0.626365 0.000869
v 0.253805 -0.626365 -0.050673
v 0.238771 -0.626365 -0.100234
v 0.214357 -0.626365 -0.145909
v 0.181501 -0.626365 -0.185944
v 0.141466 -0.626365 -0.218800
v 0.095791 -0.626365 -0.243214
v 0.046230 -0.626365 -0.258248
v -0.056854 -0.745695 -0.258248
v -0.005312 -0.745695 -0.263325
v -0.106415 -0.745695 -0.243214
v -0.152090 -0.745695 -0.218800
v -0.192125 -0.745695 -0.185944
v -0.224981 -0.745695 -0.145909
v -0.249395 -0.745695 -0.100234
v -0.264430 -0.745695 -0.050673
v -0.269506 -0.745695 0.000869
v -0.264430 -0.745695 0.052411
v -0.249395 -0.745695 0.101972
v -0.224981 -0.745695 0.147647
v -0.192125 -0.745695 0.187682
v -0.152090 -0.745695 0.220538
v -0.106415 -0.745695 0.244952
v -0.056854 -0.745695 0.259986
v -0.005312 -0.745695 0.265063
v 0.046230 -0.745695 0.259986
v 0.095790 -0.745695 0.244952
v 0.141466 -0.745695 0.220538
v 0.181501 -0.745695 0.187682
v 0.214357 -0.745695 0.147647
v 0.238771 -0.745695 0.101972
v 0.253805 -0.745695 0.052411
v 0.258882 -0.745695 0.000869
v 0.253805 -0.745695 -0.050673
v 0.238771 -0.745695 -0.100234
v 0.214357 -0.745695 -0.145909
v 0.181501 -0.745695 -0.185944
v 0.141466 -0.745695 -0.218800
v 0.095790 -0.745695 -0.243214
v 0.046230 -0.745695 -0.258248
vn -0.0980 -0.0000 -0.9952
vn -0.2903 -0.0000 -0.9569
vn -0.4714 -0.0000 -0.8819
vn -0.6344 -0.0000 -0.7730
vn -0.7730 -0.0000 -0.6344
vn -0.8819 -0.0000 -0.4714
vn -0.9569 -0.0000 -0.2903
vn -0.9952 -0.0000 -0.0980
vn -0.9952 -0.0000 0.0980
vn -0.9569 -0.0000 0.2903
vn -0.8819 -0.0000 0.4714
vn -0.7730 -0.0000 0.6344
vn -0.6344 -0.0000 0.7730
vn -0.4714 -0.0000 0.8819
vn -0.2903 -0.0000 0.9569
vn -0.0980 -0.0000 0.9952
vn 0.0980 -0.0000 0.9952
vn 0.2903 -0.0000 0.9569
vn 0.4714 -0.0000 0.8819
vn 0.6344 -0.0000 0.7730
vn 0.7730 -0.0000 0.6344
vn 0.8819 -0.0000 0.4714
vn 0.9569 -0.0000 0.2903
vn 0.9952 -0.0000 0.0980
vn 0.9952 -0.0000 -0.0980
vn 0.9569 -0.0000 -0.2903
vn 0.8819 -0.0000 -0.4714
vn 0.7730 -0.0000 -0.6344
vn 0.6344 -0.0000 -0.7730
vn 0.4714 -0.0000 -0.8819
vn -0.2755 0.3149 0.9083
vn 0.2903 -0.0000 -0.9569
vn 0.0980 -0.0000 -0.9952
vn -0.0000 1.0000 -0.0000
vn 0.9446 0.3149 0.0930
vn -0.2755 0.3149 -0.9083
vn -0.8371 0.3149 0.4474
vn 0.6021 0.3149 0.7337
vn 0.6021 0.3149 -0.7337
vn -0.9083 0.3149 -0.2755
vn -0.0930 0.3149 0.9446
vn 0.9446 0.3149 -0.0930
vn -0.4474 0.3149 -0.8371
vn -0.7337 0.3149 0.6021
vn 0.7337 0.3149 0.6021
vn 0.4474 0.3149 -0.8371
vn -0.9446 0.3149 -0.0930
vn 0.0930 0.3149 0.9446
vn 0.9083 0.3149 -0.2755
vn -0.6021 0.3149 -0.7337
vn -0.6021 0.3149 0.7337
vn 0.8371 0.3149 0.4474
vn 0.2755 0.3149 -0.9083
vn -0.9446 0.3149 0.0930
vn 0.2755 0.3149 0.9083
vn 0.8371 0.3149 -0.4474
vn -0.7337 0.3149 -0.6021
vn -0.4474 0.3149 0.8371
vn 0.9083 0.3149 0.2755
vn -0.0930 0.3149 -0.9446
vn 0.0930 0.3149 -0.9446
vn -0.9083 0.3149 0.2755
vn 0.4474 0.3149 0.8371
vn 0.7337 0.3149 -0.6021
vn -0.8371 0.3149 -0.4474
vn -0.0000 -1.0000 -0.0000
s 1
f 1//1 2//1 4//1 3//1
f 3//2 4//2 6//2 5//2
f 5//3 6//3 8//3 7//3
f 7//4 8//4 10//4 9//4
f 9//5 10//5 12//5 11//5
f 11//6 12//6 14//6 13//6
f 13//7 14//7 16//7 15//7
f 15//8 16//8 18//8 17//8
f 17//9 18//9 20//9 19//9
f 19//10 20//10 22//10 21//10
f 21//11 22//11 24//11 23//11
f 23//12 24//12 26//12 25//12
f 25//13 26//13 28//13 27//13
f 27//14 28//14 30//14 29//14
f 29//15 30//15 32//15 31//15
f 31//16 32//16 34//16 33//16
f 33//17 34//17 36//17 35//17
f 35//18 36//18 38//18 37//18
f 37//19 38//19 40//19 39//19
f 39//20 40//20 42//20 41//20
f 41//21 42//21 44//21 43//21
f 43//22 44//22 46//22 45//22
f 45//23 46//23 48//23 47//23
f 47//24 48//24 50//24 49//24
f 49//25 50//25 52//25 51//25
f 51//26 52//26 54//26 53//26
f 53//27 54//27 56//27 55//27
f 55//28 56//28 58//28 57//28
f 57//29 58//29 60//29 59//29
f 59//30 60//30 62//30 61//30
f 32//31 30//31 79//31 80//31
f 61//32 62//32 64//32 63//32
f 63//33 64//33 2//33 1//33
f 1//34 3//34 5//34 7//34 9//34 11//34 13//34 15//34 17//34 19//34 21//34 23//34 25//34 27//34 29//34 31//34 33//34 35//34 37//34 39//34 41//34 43//34 45//34 47//34 49//34 51//34 53//34 55//34 57//34 59//34 61//34 63//34
f 81//16 80//16 112//16 113//16
f 50//35 48//35 88//35 89//35
f 6//36 4//36 65//36 67//36
f 24//37 22//37 75//37 76//37
f 42//38 40//38 84//38 85//38
f 60//39 58//39 93//39 94//39
f 16//40 14//40 71//40 72//40
f 34//41 32//41 80//41 81//41
f 52//42 50//42 89//42 90//42
f 8//43 6//43 67//43 68//43
f 26//44 24//44 76//44 77//44
f 44//45 42//45 85//45 86//45
f 62//46 60//46 94//46 95//46
f 18//47 16//47 72//47 73//47
f 36//48 34//48 81//48 82//48
f 54//49 52//49 90//49 91//49
f 10//50 8//50 68//50 69//50
f 28//51 26//51 77//51 78//51
f 46//52 44//52 86//52 87//52
f 64//53 62//53 95//53 96//53
f 20//54 18//54 73//54 74//54
f 38//55 36//55 82//55 83//55
f 56//56 54//56 91//56 92//56
f 12//57 10//57 69//57 70//57
f 30//58 28//58 78//58 79//58
f 48//59 46//59 87//59 88//59
f 4//60 2//60 66//60 65//60
f 2//61 64//61 96//61 66//61
f 22//62 20//62 74//62 75//62
f 40//63 38//63 83//63 84//63
f 58//64 56//64 92//64 93//64
f 14//65 12//65 70//65 71//65
f 97//66 98//66 128//66 127//66 126//66 125//66 124//66 123//66 122//66 121//66 120//66 119//66 118//66 117//66 116//66 115//66 114//66 113//66 112//66 111//66 110//66 109//66 108//66 107//66 106//66 105//66 104//66 103//66 102//66 101//66 100//66 99//66
f 68//3 67//3 99//3 100//3
f 95//30 94//30 126//30 127//30
f 82//17 81//17 113//17 114//17
f 69//4 68//4 100//4 101//4
f 96//32 95//32 127//32 128//32
f 83//18 82//18 114//18 115//18
f 70//5 69//5 101//5 102//5
f 66//33 96//33 128//33 98//33
f 84//19 83//19 115//19 116//19
f 71//6 70//6 102//6 103//6
f 85//20 84//20 116//20 117//20
f 72//7 71//7 103//7 104//7
f 86//21 85//21 117//21 118//21
f 73//8 72//8 104//8 105//8
f 87//22 86//22 118//22 119//22
f 74//9 73//9 105//9 106//9
f 88//23 87//23 119//23 120//23
f 75//10 74//10 106//10 107//10
f 89//24 88//24 120//24 121//24
f 76//11 75//11 107//11 108//11
f 90//25 89//25 121//25 122//25
f 77//12 76//12 108//12 109//12
f 91//26 90//26 122//26 123//26
f 78//13 77//13 109//13 110//13
f 92//27 91//27 123//27 124//27
f 79//14 78//14 110//14 111//14
f 65//1 66//1 98//1 97//1
f 93//28 92//28 124//28 125//28
f 80//15 79//15 111//15 112//15
f 67//2 65//2 97//2 99//2
f 94//29 93//29 125//29 126//29
